<svg xmlns="http://www.w3.org/2000/svg" viewBox="0 0 820 560" role="img" aria-label="组织架构图">
  <title>组织架构图</title>
  <desc>御书房明朝内阁制组织架构：皇帝、司礼监调度中枢、内阁/都察院/典簿司、六部执行层、翰林院、生活辅助部门</desc>

  <defs>
    <marker id="arr" markerWidth="7" markerHeight="7" refX="5" refY="3" orient="auto">
      <path d="M0,0 L0,6 L7,3 z" fill="#94a3b8"/>
    </marker>
    <marker id="arrB" markerWidth="7" markerHeight="7" refX="5" refY="3" orient="auto">
      <path d="M0,0 L0,6 L7,3 z" fill="#6366f1"/>
    </marker>
    <filter id="shadow">
      <feDropShadow dx="1" dy="1.5" stdDeviation="2" flood-color="#00000022"/>
    </filter>
  </defs>

  <rect width="820" height="560" fill="#f8fafc" rx="8"/>

  <!-- 标题 -->
  <text x="410" y="26" text-anchor="middle" font-size="14" font-weight="bold" fill="#1e293b" font-family="sans-serif">组织架构图 — 明朝内阁制</text>

  <!-- ===================== 皇帝 ===================== -->
  <rect x="305" y="40" width="210" height="42" rx="12" fill="#fef9c3" stroke="#eab308" stroke-width="2" filter="url(#shadow)"/>
  <text x="410" y="60" text-anchor="middle" font-size="14" font-weight="bold" fill="#1e293b" font-family="sans-serif">皇帝（你）</text>
  <text x="410" y="74" text-anchor="middle" font-size="10" fill="#64748b" font-family="sans-serif">@司礼监 / Web GUI / 飞书 下旨</text>

  <line x1="410" y1="82" x2="410" y2="100" stroke="#94a3b8" stroke-width="1.5" marker-end="url(#arr)"/>

  <!-- ===================== 司礼监 ===================== -->
  <rect x="275" y="102" width="270" height="60" rx="12" fill="#dbeafe" stroke="#3b82f6" stroke-width="2" filter="url(#shadow)"/>
  <text x="410" y="122" text-anchor="middle" font-size="14" font-weight="bold" fill="#1e293b" font-family="sans-serif">司礼监（调度中枢）</text>
  <text x="410" y="138" text-anchor="middle" font-size="10" fill="#3b82f6" font-family="sans-serif">快模型 · sandbox: off · maxConcurrent: 4 · subagents: 15个</text>

  <!-- 三路分支 -->
  <line x1="340" y1="162" x2="340" y2="182" stroke="#94a3b8" stroke-width="1.5" marker-end="url(#arr)"/>
  <line x1="410" y1="162" x2="410" y2="182" stroke="#94a3b8" stroke-width="1.5" marker-end="url(#arr)"/>
  <line x1="480" y1="162" x2="480" y2="182" stroke="#94a3b8" stroke-width="1.5" marker-end="url(#arr)"/>

  <!-- ===================== 内阁 / 都察院 / 典簿司 ===================== -->

  <!-- 内阁 -->
  <rect x="205" y="184" width="160" height="62" rx="10" fill="#dcfce7" stroke="#16a34a" stroke-width="1.5" filter="url(#shadow)"/>
  <text x="285" y="206" text-anchor="middle" font-size="12" font-weight="bold" fill="#1e293b" font-family="sans-serif">内阁</text>
  <text x="285" y="220" text-anchor="middle" font-size="9" fill="#64748b" font-family="sans-serif">Prompt 优化</text>
  <text x="285" y="233" text-anchor="middle" font-size="9" fill="#64748b" font-family="sans-serif">强模型 · 无子代</text>
  <!-- 内阁 -> 司礼监（回折） -->
  <path d="M 365 215 L 390 215 L 390 132 L 375 132" stroke="#94a3b8" stroke-width="1.2" fill="none" marker-end="url(#arr)"/>
  <text x="393" y="175" font-size="8" fill="#64748b" font-family="sans-serif">返回 Plan</text>

  <!-- 都察院 -->
  <rect x="380" y="184" width="160" height="62" rx="10" fill="#fee2e2" stroke="#dc2626" stroke-width="1.5" filter="url(#shadow)"/>
  <text x="460" y="206" text-anchor="middle" font-size="12" font-weight="bold" fill="#1e293b" font-family="sans-serif">都察院</text>
  <text x="460" y="220" text-anchor="middle" font-size="9" fill="#64748b" font-family="sans-serif">代码审查 · 独立</text>
  <text x="460" y="233" text-anchor="middle" font-size="9" fill="#dc2626" font-family="sans-serif">强模型 · 独立汇报</text>
  <!-- Webhook 触发 -->
  <line x1="540" y1="215" x2="570" y2="215" stroke="#dc2626" stroke-width="1.2" stroke-dasharray="4,2"/>
  <rect x="572" y="200" width="90" height="30" rx="6" fill="#fff7ed" stroke="#fb923c" stroke-width="1"/>
  <text x="617" y="220" text-anchor="middle" font-size="9" fill="#64748b" font-family="sans-serif">GitHub</text>

  <!-- 典簿司 -->
  <rect x="555" y="184" width="150" height="62" rx="10" fill="#f0fdf4" stroke="#16a34a" stroke-width="1.5" filter="url(#shadow)"/>
  <text x="630" y="206" text-anchor="middle" font-size="12" font-weight="bold" fill="#1e293b" font-family="sans-serif">典簿司</text>
  <text x="630" y="220" text-anchor="middle" font-size="9" fill="#64748b" font-family="sans-serif">记忆管理</text>
  <text x="630" y="233" text-anchor="middle" font-size="9" fill="#64748b" font-family="sans-serif">快模型 · 无子代</text>

  <!-- ===================== 六部执行层 ===================== -->
  <!-- 分支线到六部 -->
  <line x1="285" y1="246" x2="285" y2="268" stroke="#94a3b8" stroke-width="1" display="none"/>
  <line x1="460" y1="246" x2="460" y2="268" stroke="#94a3b8" stroke-width="1" display="none"/>
  <line x1="285" y1="268" x2="660" y2="268" stroke="#94a3b8" stroke-width="1.5"/>

  <!-- 六部标题 -->
  <text x="410" y="264" text-anchor="middle" font-size="11" font-weight="bold" fill="#64748b" font-family="sans-serif">六 部 执 行 层</text>

  <!-- 六部盒子（两排） -->
  <rect x="30" y="276" width="110" height="52" rx="8" fill="#ede9fe" stroke="#7c3aed" stroke-width="1.2" filter="url(#shadow)"/>
  <text x="85" y="295" text-anchor="middle" font-size="12" font-weight="bold" fill="#1e293b" font-family="sans-serif">兵部</text>
  <text x="85" y="310" text-anchor="middle" font-size="9" fill="#64748b" font-family="sans-serif">开发 · git push</text>
  <text x="85" y="323" text-anchor="middle" font-size="9" fill="#64748b" font-family="sans-serif">强模型 · sandbox=all</text>

  <rect x="150" y="276" width="110" height="52" rx="8" fill="#ede9fe" stroke="#7c3aed" stroke-width="1.2" filter="url(#shadow)"/>
  <text x="205" y="295" text-anchor="middle" font-size="12" font-weight="bold" fill="#1e293b" font-family="sans-serif">户部</text>
  <text x="205" y="310" text-anchor="middle" font-size="9" fill="#64748b" font-family="sans-serif">API 监控 · 日周月报</text>
  <text x="205" y="323" text-anchor="middle" font-size="9" fill="#64748b" font-family="sans-serif">强模型</text>

  <rect x="270" y="276" width="110" height="52" rx="8" fill="#ede9fe" stroke="#7c3aed" stroke-width="1.2" filter="url(#shadow)"/>
  <text x="325" y="295" text-anchor="middle" font-size="12" font-weight="bold" fill="#1e293b" font-family="sans-serif">礼部</text>
  <text x="325" y="310" text-anchor="middle" font-size="9" fill="#64748b" font-family="sans-serif">学术文案</text>
  <text x="325" y="323" text-anchor="middle" font-size="9" fill="#64748b" font-family="sans-serif">快模型</text>

  <rect x="390" y="276" width="110" height="52" rx="8" fill="#ede9fe" stroke="#7c3aed" stroke-width="1.2" filter="url(#shadow)"/>
  <text x="445" y="295" text-anchor="middle" font-size="12" font-weight="bold" fill="#1e293b" font-family="sans-serif">工部</text>
  <text x="445" y="310" text-anchor="middle" font-size="9" fill="#64748b" font-family="sans-serif">运维 · 每2h健康巡检</text>
  <text x="445" y="323" text-anchor="middle" font-size="9" fill="#64748b" font-family="sans-serif">快模型</text>

  <rect x="510" y="276" width="110" height="52" rx="8" fill="#ede9fe" stroke="#7c3aed" stroke-width="1.2" filter="url(#shadow)"/>
  <text x="565" y="295" text-anchor="middle" font-size="12" font-weight="bold" fill="#1e293b" font-family="sans-serif">吏部</text>
  <text x="565" y="310" text-anchor="middle" font-size="9" fill="#64748b" font-family="sans-serif">知识库 · workspace 直读</text>
  <text x="565" y="323" text-anchor="middle" font-size="9" fill="#64748b" font-family="sans-serif">快模型 · 不被spawn</text>

  <rect x="630" y="276" width="110" height="52" rx="8" fill="#ede9fe" stroke="#7c3aed" stroke-width="1.2" filter="url(#shadow)"/>
  <text x="685" y="295" text-anchor="middle" font-size="12" font-weight="bold" fill="#1e293b" font-family="sans-serif">刑部</text>
  <text x="685" y="310" text-anchor="middle" font-size="9" fill="#64748b" font-family="sans-serif">法务 · 引用审计</text>
  <text x="685" y="323" text-anchor="middle" font-size="9" fill="#64748b" font-family="sans-serif">快模型 · 翰林院调用</text>

  <!-- 连接线 -->
  <line x1="85" y1="268" x2="85" y2="276" stroke="#94a3b8" stroke-width="1"/>
  <line x1="205" y1="268" x2="205" y2="276" stroke="#94a3b8" stroke-width="1"/>
  <line x1="325" y1="268" x2="325" y2="276" stroke="#94a3b8" stroke-width="1"/>
  <line x1="445" y1="268" x2="445" y2="276" stroke="#94a3b8" stroke-width="1"/>
  <line x1="565" y1="268" x2="565" y2="276" stroke="#94a3b8" stroke-width="1"/>
  <line x1="685" y1="268" x2="685" y2="276" stroke="#94a3b8" stroke-width="1"/>

  <!-- ===================== 翰林院 ===================== -->
  <!-- 司礼监 -> 翰林院 -->
  <line x1="410" y1="162" x2="410" y2="182" stroke="#6366f1" stroke-width="0" display="none"/>
  <path d="M 460 215 L 490 215 L 490 350 L 490 362" stroke="#6366f1" stroke-width="1.5" fill="none" marker-end="url(#arrB)"/>
  <text x="493" y="290" font-size="9" fill="#6366f1" font-family="sans-serif">sessions_spawn</text>

  <!-- 六部 -> 翰林院 -->
  <line x1="630" y1="328" x2="630" y2="350" stroke="#6366f1" stroke-width="1.2" stroke-dasharray="4,2"/>
  <line x1="630" y1="350" x2="490" y2="350" stroke="#6366f1" stroke-width="1.2"/>
  <line x1="490" y1="350" x2="490" y2="362" stroke="#6366f1" stroke-width="1.2" marker-end="url(#arrB)"/>
  <text x="555" y="346" font-size="9" fill="#6366f1" font-family="sans-serif">刑部: 引用审计</text>

  <!-- 翰林院主框 -->
  <rect x="300" y="362" width="420" height="110" rx="12" fill="#f5f3ff" stroke="#7c3aed" stroke-width="1.5" filter="url(#shadow)"/>
  <text x="510" y="383" text-anchor="middle" font-size="13" font-weight="bold" fill="#1e293b" font-family="sans-serif">翰林院（创作流水线）</text>

  <!-- 掌院学士 -->
  <rect x="310" y="390" width="130" height="70" rx="8" fill="#c4b5fd" stroke="#7c3aed" stroke-width="1.2"/>
  <text x="375" y="412" text-anchor="middle" font-size="11" font-weight="bold" fill="#1e293b" font-family="sans-serif">掌院学士</text>
  <text x="375" y="426" text-anchor="middle" font-size="9" fill="#64748b" font-family="sans-serif">统筹 + 终审</text>
  <text x="375" y="440" text-anchor="middle" font-size="9" fill="#64748b" font-family="sans-serif">强 · 600s</text>
  <text x="375" y="454" text-anchor="middle" font-size="9" fill="#7c3aed" font-family="sans-serif">sessions_spawn</text>

  <!-- 连接线: 掌院 -> 各员 -->
  <line x1="440" y1="425" x2="468" y2="425" stroke="#7c3aed" stroke-width="1.2" marker-end="url(#arrB)"/>
  <line x1="440" y1="425" x2="545" y2="425" stroke="#7c3aed" stroke-width="1.2" marker-end="url(#arrB)"/>
  <line x1="440" y1="425" x2="615" y2="425" stroke="#7c3aed" stroke-width="1.2" marker-end="url(#arrB)"/>
  <line x1="440" y1="425" x2="685" y2="425" stroke="#7c3aed" stroke-width="1.2" marker-end="url(#arrB)"/>

  <!-- 修撰 -->
  <rect x="470" y="392" width="73" height="50" rx="7" fill="#ddd6fe" stroke="#7c3aed" stroke-width="1"/>
  <text x="506" y="410" text-anchor="middle" font-size="10" font-weight="bold" fill="#1e293b" font-family="sans-serif">修撰</text>
  <text x="506" y="423" text-anchor="middle" font-size="8" fill="#64748b" font-family="sans-serif">大纲·世界观</text>
  <text x="506" y="436" text-anchor="middle" font-size="8" fill="#64748b" font-family="sans-serif">强 · 360s</text>

  <!-- 编修 -->
  <rect x="547" y="392" width="66" height="50" rx="7" fill="#ddd6fe" stroke="#7c3aed" stroke-width="1"/>
  <text x="580" y="410" text-anchor="middle" font-size="10" font-weight="bold" fill="#1e293b" font-family="sans-serif">编修</text>
  <text x="580" y="423" text-anchor="middle" font-size="8" fill="#64748b" font-family="sans-serif">逐章≥10000字</text>
  <text x="580" y="436" text-anchor="middle" font-size="8" fill="#64748b" font-family="sans-serif">强 · 600s</text>

  <!-- 检讨 -->
  <rect x="617" y="392" width="66" height="50" rx="7" fill="#ede9fe" stroke="#7c3aed" stroke-width="1"/>
  <text x="650" y="410" text-anchor="middle" font-size="10" font-weight="bold" fill="#1e293b" font-family="sans-serif">检讨</text>
  <text x="650" y="423" text-anchor="middle" font-size="8" fill="#64748b" font-family="sans-serif">同行评审</text>
  <text x="650" y="436" text-anchor="middle" font-size="8" fill="#64748b" font-family="sans-serif">快 · 180s</text>

  <!-- 庶吉士 -->
  <rect x="687" y="392" width="66" height="50" rx="7" fill="#ede9fe" stroke="#7c3aed" stroke-width="1"/>
  <text x="720" y="410" text-anchor="middle" font-size="10" font-weight="bold" fill="#1e293b" font-family="sans-serif">庶吉士</text>
  <text x="720" y="423" text-anchor="middle" font-size="8" fill="#64748b" font-family="sans-serif">信息检索</text>
  <text x="720" y="436" text-anchor="middle" font-size="8" fill="#64748b" font-family="sans-serif">快 · 120s</text>

  <!-- 修撰/编修 -> 庶吉士 -->
  <path d="M 513 442 L 513 460 L 720 460 L 720 448" stroke="#7c3aed" stroke-width="0.8" fill="none" stroke-dasharray="3,2"/>
  <path d="M 580 442 L 580 460 L 720 460" stroke="#7c3aed" stroke-width="0.8" fill="none" stroke-dasharray="3,2"/>

  <!-- ===================== 生活辅助 ===================== -->
  <rect x="30" y="390" width="110" height="52" rx="8" fill="#f0fdfa" stroke="#0d9488" stroke-width="1.2" filter="url(#shadow)"/>
  <text x="85" y="408" text-anchor="middle" font-size="11" font-weight="bold" fill="#1e293b" font-family="sans-serif">起居注官</text>
  <text x="85" y="422" text-anchor="middle" font-size="9" fill="#64748b" font-family="sans-serif">起居注 · 日归档</text>
  <text x="85" y="436" text-anchor="middle" font-size="9" fill="#64748b" font-family="sans-serif">快模型</text>

  <rect x="150" y="390" width="110" height="52" rx="8" fill="#f0fdfa" stroke="#0d9488" stroke-width="1.2" filter="url(#shadow)"/>
  <text x="205" y="408" text-anchor="middle" font-size="11" font-weight="bold" fill="#1e293b" font-family="sans-serif">国子监</text>
  <text x="205" y="422" text-anchor="middle" font-size="9" fill="#64748b" font-family="sans-serif">学习计划 · 每日推送</text>
  <text x="205" y="436" text-anchor="middle" font-size="9" fill="#64748b" font-family="sans-serif">快模型</text>

  <rect x="30" y="448" width="110" height="52" rx="8" fill="#f0fdfa" stroke="#0d9488" stroke-width="1.2" filter="url(#shadow)"/>
  <text x="85" y="466" text-anchor="middle" font-size="11" font-weight="bold" fill="#1e293b" font-family="sans-serif">太医院</text>
  <text x="85" y="480" text-anchor="middle" font-size="9" fill="#64748b" font-family="sans-serif">健康 · 训练</text>
  <text x="85" y="494" text-anchor="middle" font-size="9" fill="#64748b" font-family="sans-serif">快模型</text>

  <rect x="150" y="448" width="110" height="52" rx="8" fill="#f0fdfa" stroke="#0d9488" stroke-width="1.2" filter="url(#shadow)"/>
  <text x="205" y="466" text-anchor="middle" font-size="11" font-weight="bold" fill="#1e293b" font-family="sans-serif">内务府</text>
  <text x="205" y="480" text-anchor="middle" font-size="9" fill="#64748b" font-family="sans-serif">日程 · 后勤</text>
  <text x="205" y="494" text-anchor="middle" font-size="9" fill="#64748b" font-family="sans-serif">快模型</text>

  <!-- 生活辅助标签 -->
  <text x="85" y="386" text-anchor="middle" font-size="9" font-weight="bold" fill="#0d9488" font-family="sans-serif">生活辅助（可选）</text>

  <!-- 图例 -->
  <rect x="705" y="462" width="100" height="85" rx="6" fill="#f1f5f9" stroke="#cbd5e1" stroke-width="1"/>
  <text x="755" y="477" text-anchor="middle" font-size="9" font-weight="bold" fill="#475569" font-family="sans-serif">图例</text>
  <rect x="713" y="483" width="12" height="8" rx="2" fill="#dbeafe" stroke="#3b82f6"/>
  <text x="730" y="491" font-size="8" fill="#64748b" font-family="sans-serif">调度层</text>
  <rect x="713" y="496" width="12" height="8" rx="2" fill="#dcfce7" stroke="#16a34a"/>
  <text x="730" y="504" font-size="8" fill="#64748b" font-family="sans-serif">优化层</text>
  <rect x="713" y="509" width="12" height="8" rx="2" fill="#ede9fe" stroke="#7c3aed"/>
  <text x="730" y="517" font-size="8" fill="#64748b" font-family="sans-serif">执行层</text>
  <rect x="713" y="522" width="12" height="8" rx="2" fill="#f0fdfa" stroke="#0d9488"/>
  <text x="730" y="530" font-size="8" fill="#64748b" font-family="sans-serif">辅助</text>
</svg>
